<?xml version="1.0" encoding="UTF-8" standalone="no"?>
<!-- Created with Digital by H.Neemann -->
<!-- created: Thu Jan 19 00:29:32 CET 2023 -->

<svg
   xmlns:svg="http://www.w3.org/2000/svg"
   xmlns="http://www.w3.org/2000/svg"
   width="267.6mm"
   height="111.6mm"
   viewBox="78 -102 1784 744">
<g stroke-linecap="square">
<path d="M 1440,240 L 1440,0 L 1540,0" stroke="#008e00" stroke-width="4.0" fill="none"/>
<path d="M 740,-20 L 1540,-20" stroke="#008e00" stroke-width="4.0" fill="none"/>
<path d="M 1600,-20 L 1640,-20 L 1640,-100 L 340,-100 L 340,520" stroke="#008e00" stroke-width="4.0" fill="none"/>
<path d="M 740,100 L 1680,100 L 1680,340 L 1700,340" stroke="#008e00" stroke-width="4.0" fill="none"/>
<path d="M 740,-40 L 1540,-40" stroke="#008e00" stroke-width="4.0" fill="none"/>
<path d="M 860,240 L 860,360 L 920,360" stroke="#008e00" stroke-width="4.0" fill="none"/>
<path d="M 1640,240 L 1640,360 L 1700,360" stroke="#008e00" stroke-width="4.0" fill="none"/>
<path d="M 400,560 L 420,560" stroke="#008e00" stroke-width="4.0" fill="none"/>
<path d="M 180,240 L 220,240 L 860,240 L 1440,240 L 1640,240 L 1860,240" stroke="#008e00" stroke-width="4.0" fill="none"/>
<path d="M 740,120 L 1820,120 L 1820,440" stroke="#008e00" stroke-width="4.0" fill="none"/>
<path d="M 260,320 L 220,320 L 220,240 L 220,220 L 240,220" stroke="#008e00" stroke-width="4.0" fill="none"/>
<path d="M 400,320 L 410,320 L 420,320" stroke="#000000" stroke-width="4.0" fill="none"/>
<path d="M 420,340 L 410,340" stroke="#000000" stroke-width="4.0" fill="none"/>
<path d="M 420,360 L 410,360" stroke="#000000" stroke-width="4.0" fill="none"/>
<path d="M 660,320 L 670,320 L 680,320" stroke="#000000" stroke-width="4.0" fill="none"/>
<path d="M 680,360 L 670,360" stroke="#000000" stroke-width="4.0" fill="none"/>
<path d="M 680,400 L 670,400" stroke="#000000" stroke-width="4.0" fill="none"/>
<path d="M 680,440 L 670,440" stroke="#000000" stroke-width="4.0" fill="none"/>
<path d="M 680,480 L 670,480" stroke="#000000" stroke-width="4.0" fill="none"/>
<path d="M 1540,300 L 1550,300 L 1560,300" stroke="#000000" stroke-width="4.0" fill="none"/>
<path d="M 1560,320 L 1550,320" stroke="#000000" stroke-width="4.0" fill="none"/>
<path d="M 1560,340 L 1550,340" stroke="#000000" stroke-width="4.0" fill="none"/>
<path d="M 660,540 L 670,540 L 680,540" stroke="#000000" stroke-width="4.0" fill="none"/>
<path d="M 680,560 L 670,560" stroke="#000000" stroke-width="4.0" fill="none"/>
<path d="M 680,580 L 670,580" stroke="#000000" stroke-width="4.0" fill="none"/>
<path d="M 320,320 L 380,320 L 400,320" stroke="#0000b2" stroke-width="4.0" fill="none"/>
<path d="M 680,320 L 720,320 L 720,340 L 740,340 L 920,340" stroke="#0000b2" stroke-width="4.0" fill="none"/>
<path d="M 1560,320 L 1600,320 L 1600,300 L 1700,300" stroke="#0000b2" stroke-width="4.0" fill="none"/>
<path d="M 1000,320 L 1180,320 L 1220,320" stroke="#0000b2" stroke-width="4.0" fill="none"/>
<path d="M 1440,320 L 1460,320 L 1460,20 L 1540,20" stroke="#0000b2" stroke-width="4.0" fill="none"/>
<path d="M 560,320 L 580,320 L 620,320 L 660,320" stroke="#0000b2" stroke-width="4.0" fill="none"/>
<path d="M 480,520 L 500,520 L 500,600 L 200,600 L 200,400" stroke="#0000b2" stroke-width="4.0" fill="none"/>
<path d="M 380,400 L 380,520 L 420,520" stroke="#0000b2" stroke-width="4.0" fill="none"/>
<path d="M 280,520 L 320,520" stroke="#0000b2" stroke-width="4.0" fill="none"/>
<path d="M 1840,460 L 1860,460 L 1860,620 L 1260,620 L 840,620 L 840,300 L 920,300" stroke="#0000b2" stroke-width="4.0" fill="none"/>
<path d="M 740,340 L 740,400 L 760,400" stroke="#0000b2" stroke-width="4.0" fill="none"/>
<path d="M 380,320 L 380,400 L 400,400 L 400,420" stroke="#0000b2" stroke-width="4.0" fill="none"/>
<path d="M 740,80 L 1300,80 L 1300,300 L 1320,300" stroke="#0000b2" stroke-width="4.0" fill="none"/>
<path d="M 420,340 L 460,340 L 460,300 L 500,300" stroke="#0000b2" stroke-width="4.0" fill="none"/>
<path d="M 1260,340 L 1320,340" stroke="#0000b2" stroke-width="4.0" fill="none"/>
<path d="M 1760,340 L 1780,340 L 1780,480 L 1800,480" stroke="#0000b2" stroke-width="4.0" fill="none"/>
<path d="M 1260,620 L 1260,600 L 1280,600" stroke="#0000b2" stroke-width="4.0" fill="none"/>
<path d="M 1140,540 L 1160,540 L 1260,540 L 1260,500 L 1280,500" stroke="#0000b2" stroke-width="4.0" fill="none"/>
<path d="M 620,320 L 620,540 L 660,540" stroke="#0000b2" stroke-width="4.0" fill="none"/>
<path d="M 360,540 L 420,540" stroke="#0000b2" stroke-width="4.0" fill="none"/>
<path d="M 800,420 L 820,420 L 820,400 L 920,400" stroke="#0000b2" stroke-width="4.0" fill="none"/>
<path d="M 680,360 L 720,360 L 720,380 L 920,380" stroke="#0000b2" stroke-width="4.0" fill="none"/>
<path d="M 740,40 L 1020,40 L 1020,520 L 1040,520" stroke="#0000b2" stroke-width="4.0" fill="none"/>
<path d="M 1000,300 L 1280,300 L 1280,320 L 1320,320" stroke="#0000b2" stroke-width="4.0" fill="none"/>
<path d="M 1440,300 L 1500,300 L 1540,300" stroke="#0000b2" stroke-width="4.0" fill="none"/>
<path d="M 680,560 L 1040,560" stroke="#0000b2" stroke-width="4.0" fill="none"/>
<path d="M 1500,300 L 1500,440 L 1800,440" stroke="#0000b2" stroke-width="4.0" fill="none"/>
<path d="M 680,440 L 760,440" stroke="#0000b2" stroke-width="4.0" fill="none"/>
<path d="M 580,400 L 580,320 L 580,-60 L 620,-60" stroke="#0000b2" stroke-width="4.0" fill="none"/>
<path d="M 740,-60 L 1540,-60" stroke="#0000b2" stroke-width="4.0" fill="none"/>
<path d="M 1180,320 L 1180,380 L 1620,380 L 1620,320 L 1700,320" stroke="#0000b2" stroke-width="4.0" fill="none"/>
<path d="M 220,420 L 220,400 L 200,400 L 200,300 L 260,300" stroke="#0000b2" stroke-width="4.0" fill="none"/>
<path d="M 1220,360 L 1160,360 L 1160,540 L 1160,640 L 280,640 L 280,560 L 320,560" stroke="#0000b2" stroke-width="4.0" fill="none"/>
<path d="M 740,0 L 780,0 L 780,400" stroke="#66ff66" stroke-width="4.0" fill="none"/>
<path d="M 480,340 L 500,340" stroke="#66ff66" stroke-width="4.0" fill="none"/>
<path d="M 240,340 L 260,340" stroke="#66ff66" stroke-width="4.0" fill="none"/>
<path d="M 740,20 L 900,20 L 900,320 L 920,320" stroke="#66ff66" stroke-width="4.0" fill="none"/>
<path d="M 1680,380 L 1700,380" stroke="#66ff66" stroke-width="4.0" fill="none"/>
<path d="M 740,60 L 1240,60 L 1240,320" stroke="#66ff66" stroke-width="4.0" fill="none"/>
<g>
<circle cx="380.0" cy="320.0" r="4.0" stroke="#0000b2" stroke-width="4.0" fill="#0000b2" />
<text text-anchor="middle" x="1090.0" y="317.0" fill="#32a232" style="font-size:12px">2</text>
<circle cx="1180.0" cy="320.0" r="4.0" stroke="#0000b2" stroke-width="4.0" fill="#0000b2" />
<circle cx="580.0" cy="320.0" r="4.0" stroke="#0000b2" stroke-width="4.0" fill="#0000b2" />
<circle cx="620.0" cy="320.0" r="4.0" stroke="#0000b2" stroke-width="4.0" fill="#0000b2" />
<text text-anchor="middle" x="710.0" y="637.0" fill="#32a232" style="font-size:12px">7</text>
<circle cx="200.0" cy="400.0" r="4.0" stroke="#0000b2" stroke-width="4.0" fill="#0000b2" />
<text text-anchor="middle" x="870.0" y="397.0" fill="#32a232" style="font-size:12px">0</text>
<circle cx="380.0" cy="400.0" r="4.0" stroke="#0000b2" stroke-width="4.0" fill="#0000b2" />
<text text-anchor="middle" x="1010.0" y="77.0" fill="#32a232" style="font-size:12px">0</text>
<circle cx="740.0" cy="340.0" r="4.0" stroke="#0000b2" stroke-width="4.0" fill="#0000b2" />
<text text-anchor="middle" x="830.0" y="337.0" fill="#32a232" style="font-size:12px">2</text>
<text text-anchor="middle" x="350.0" y="597.0" fill="#32a232" style="font-size:12px">0x18</text>
<circle cx="1160.0" cy="540.0" r="4.0" stroke="#0000b2" stroke-width="4.0" fill="#0000b2" />
<text text-anchor="middle" x="1210.0" y="537.0" fill="#32a232" style="font-size:12px">7</text>
<text text-anchor="middle" x="870.0" y="37.0" fill="#32a232" style="font-size:12px">1</text>
<text text-anchor="middle" x="1650.0" y="297.0" fill="#32a232" style="font-size:12px">0</text>
<text text-anchor="middle" x="1130.0" y="297.0" fill="#32a232" style="font-size:12px">0</text>
<circle cx="1500.0" cy="300.0" r="4.0" stroke="#0000b2" stroke-width="4.0" fill="#0000b2" />
<text text-anchor="middle" x="1050.0" y="617.0" fill="#32a232" style="font-size:12px">7</text>
<circle cx="1260.0" cy="620.0" r="4.0" stroke="#0000b2" stroke-width="4.0" fill="#0000b2" />
<text text-anchor="middle" x="1550.0" y="617.0" fill="#32a232" style="font-size:12px">7</text>
<text text-anchor="middle" x="850.0" y="557.0" fill="#32a232" style="font-size:12px">E2</text>
<circle cx="220.0" cy="240.0" r="4.0" stroke="#008e00" stroke-width="4.0" fill="#008e00" />
<circle cx="1640.0" cy="240.0" r="4.0" stroke="#008e00" stroke-width="4.0" fill="#008e00" />
<circle cx="860.0" cy="240.0" r="4.0" stroke="#008e00" stroke-width="4.0" fill="#008e00" />
<circle cx="1440.0" cy="240.0" r="4.0" stroke="#008e00" stroke-width="4.0" fill="#008e00" />
<text text-anchor="middle" x="1650.0" y="437.0" fill="#32a232" style="font-size:12px">7</text>
<text text-anchor="middle" x="1130.0" y="-63.0" fill="#32a232" style="font-size:12px">2</text>
<text text-anchor="middle" x="810.0" y="377.0" fill="#32a232" style="font-size:12px">2</text>
<text text-anchor="middle" x="1390.0" y="377.0" fill="#32a232" style="font-size:12px">2</text>
</g>
<g>
<path d="M 501,290 L 559,290 L 559,350 L 501,350 Z" stroke="#000000" stroke-width="4.0" fill="none"/>
<text text-anchor="middle" x="530.0" y="282.0" fill="#000000" style="font-size:24px">I-Mem</text>
<text text-anchor="start" x="504.0" y="306.75" fill="#808080" style="font-size:18px">A</text>
<text text-anchor="start" x="504.0" y="346.75" fill="#808080" style="font-size:18px">sel</text>
<text text-anchor="end" x="556.0" y="326.75" fill="#808080" style="font-size:18px">D</text>
<text text-anchor="middle" x="530.0" y="367.5" fill="#808080" style="font-size:18px">ROM</text>
<circle cx="500.0" cy="300.0" r="2.0" stroke="#0000b2" stroke-width="4.0" fill="#0000b2" />
<circle cx="500.0" cy="340.0" r="2.0" stroke="#0000b2" stroke-width="4.0" fill="#0000b2" />
<circle cx="560.0" cy="320.0" r="2.0" stroke="#b20000" stroke-width="4.0" fill="#b20000" />
</g>
<g>
<text text-anchor="end" x="477.0" y="349.0" fill="#000000" style="font-size:24px">1</text>
<circle cx="480.0" cy="340.0" r="2.0" stroke="#b20000" stroke-width="4.0" fill="#b20000" />
</g>
<g>
<path d="M 261,290 L 319,290 L 319,350 L 261,350 Z" stroke="#000000" stroke-width="4.0" fill="none"/>
<text text-anchor="middle" x="290.0" y="282.0" fill="#000000" style="font-size:24px">PC</text>
<text text-anchor="start" x="264.0" y="306.75" fill="#808080" style="font-size:18px">D</text>
<path d="M 261,327 L 268,320 L 261,313" stroke="#000000" stroke-width="2.0" fill="none"/>
<text text-anchor="start" x="271.0" y="326.75" fill="#808080" style="font-size:18px">C</text>
<text text-anchor="start" x="264.0" y="346.75" fill="#808080" style="font-size:18px">en</text>
<text text-anchor="end" x="316.0" y="326.75" fill="#808080" style="font-size:18px">Q</text>
<text text-anchor="middle" x="290.0" y="367.5" fill="#808080" style="font-size:18px">Reg</text>
<circle cx="260.0" cy="300.0" r="2.0" stroke="#0000b2" stroke-width="4.0" fill="#0000b2" />
<circle cx="260.0" cy="320.0" r="2.0" stroke="#0000b2" stroke-width="4.0" fill="#0000b2" />
<circle cx="260.0" cy="340.0" r="2.0" stroke="#0000b2" stroke-width="4.0" fill="#0000b2" />
<circle cx="320.0" cy="320.0" r="2.0" stroke="#b20000" stroke-width="4.0" fill="#b20000" />
</g>
<g>
<path d="M 421,510 L 479,510 L 479,570 L 421,570 Z" stroke="#000000" stroke-width="4.0" fill="none"/>
<text text-anchor="start" x="424.0" y="526.75" fill="#808080" style="font-size:18px">a</text>
<text text-anchor="start" x="424.0" y="546.75" fill="#808080" style="font-size:18px">b</text>
<text text-anchor="start" x="424.0" y="566.75" fill="#808080" style="font-size:18px">c<tspan style="font-size:80%;baseline-shift:sub;">i</tspan></text>
<text text-anchor="end" x="476.0" y="526.75" fill="#808080" style="font-size:18px">s</text>
<text text-anchor="end" x="476.0" y="546.75" fill="#808080" style="font-size:18px">c<tspan style="font-size:80%;baseline-shift:sub;">o</tspan></text>
<text text-anchor="middle" x="450.0" y="587.5" fill="#808080" style="font-size:18px">Add</text>
<circle cx="420.0" cy="520.0" r="2.0" stroke="#0000b2" stroke-width="4.0" fill="#0000b2" />
<circle cx="420.0" cy="540.0" r="2.0" stroke="#0000b2" stroke-width="4.0" fill="#0000b2" />
<circle cx="420.0" cy="560.0" r="2.0" stroke="#0000b2" stroke-width="4.0" fill="#0000b2" />
<circle cx="480.0" cy="520.0" r="2.0" stroke="#b20000" stroke-width="4.0" fill="#b20000" />
<circle cx="480.0" cy="540.0" r="2.0" stroke="#b20000" stroke-width="4.0" fill="#b20000" />
</g>
<g>
<text text-anchor="end" x="398.0" y="317.0" fill="#808080" style="font-size:12px">0-63</text>
<text text-anchor="start" x="422.0" y="317.0" fill="#808080" style="font-size:12px">0,1</text>
<text text-anchor="start" x="422.0" y="337.0" fill="#808080" style="font-size:12px">2-9</text>
<text text-anchor="start" x="422.0" y="357.0" fill="#808080" style="font-size:12px">10-63</text>
<path d="M 408,318 L 412,318 L 412,362 L 408,362 Z" stroke="#000000" stroke-width="4.0" fill="#000000" fill-opacity="1.0"/>
<circle cx="400.0" cy="320.0" r="2.0" stroke="#0000b2" stroke-width="4.0" fill="#0000b2" />
<circle cx="420.0" cy="320.0" r="2.0" stroke="#b20000" stroke-width="4.0" fill="#b20000" />
<circle cx="420.0" cy="340.0" r="2.0" stroke="#b20000" stroke-width="4.0" fill="#b20000" />
<circle cx="420.0" cy="360.0" r="2.0" stroke="#b20000" stroke-width="4.0" fill="#b20000" />
</g>
<g>
<path d="M 149,225 L 179,225 L 179,255 L 149,255 Z" stroke="#000000" stroke-width="4.0" fill="none"/>
<text text-anchor="end" x="135.0" y="249.0" fill="#000000" style="font-size:24px"><tspan style="font-style:italic;">CLK</tspan></text>
<path d="M 155,245 L 160,245 L 160,235 L 165,235 L 165,245 L 170,245 L 170,235 L 175,235" stroke="#000000" stroke-width="2.0" fill="none"/>
<circle cx="180.0" cy="240.0" r="2.0" stroke="#b20000" stroke-width="4.0" fill="#b20000" />
</g>
<g>
<text text-anchor="end" x="237.0" y="349.0" fill="#000000" style="font-size:24px">1</text>
<circle cx="240.0" cy="340.0" r="2.0" stroke="#b20000" stroke-width="4.0" fill="#b20000" />
</g>
<g>
<path d="M 921,290 L 999,290 L 999,410 L 921,410 Z" stroke="#000000" stroke-width="4.0" fill="none"/>
<text text-anchor="middle" x="960.0" y="282.0" fill="#000000" style="font-size:24px">Reg File</text>
<text text-anchor="start" x="924.0" y="306.75" fill="#808080" style="font-size:18px">Din</text>
<text text-anchor="start" x="924.0" y="326.75" fill="#808080" style="font-size:18px">we</text>
<text text-anchor="start" x="924.0" y="346.75" fill="#808080" style="font-size:18px">Rw</text>
<path d="M 921,367 L 928,360 L 921,353" stroke="#000000" stroke-width="2.0" fill="none"/>
<text text-anchor="start" x="931.0" y="366.75" fill="#808080" style="font-size:18px">C</text>
<text text-anchor="start" x="924.0" y="386.75" fill="#808080" style="font-size:18px">Ra</text>
<text text-anchor="start" x="924.0" y="406.75" fill="#808080" style="font-size:18px">Rb</text>
<text text-anchor="end" x="996.0" y="306.75" fill="#808080" style="font-size:18px">Da</text>
<text text-anchor="end" x="996.0" y="326.75" fill="#808080" style="font-size:18px">Db</text>
<text text-anchor="middle" x="960.0" y="427.5" fill="#808080" style="font-size:18px">Register</text>
<circle cx="920.0" cy="300.0" r="2.0" stroke="#0000b2" stroke-width="4.0" fill="#0000b2" />
<circle cx="920.0" cy="320.0" r="2.0" stroke="#0000b2" stroke-width="4.0" fill="#0000b2" />
<circle cx="920.0" cy="340.0" r="2.0" stroke="#0000b2" stroke-width="4.0" fill="#0000b2" />
<circle cx="920.0" cy="360.0" r="2.0" stroke="#0000b2" stroke-width="4.0" fill="#0000b2" />
<circle cx="920.0" cy="380.0" r="2.0" stroke="#0000b2" stroke-width="4.0" fill="#0000b2" />
<circle cx="920.0" cy="400.0" r="2.0" stroke="#0000b2" stroke-width="4.0" fill="#0000b2" />
<circle cx="1000.0" cy="300.0" r="2.0" stroke="#b20000" stroke-width="4.0" fill="#b20000" />
<circle cx="1000.0" cy="320.0" r="2.0" stroke="#b20000" stroke-width="4.0" fill="#b20000" />
</g>
<g>
<text text-anchor="end" x="658.0" y="317.0" fill="#808080" style="font-size:12px">0-31</text>
<text text-anchor="start" x="682.0" y="317.0" fill="#808080" style="font-size:12px">0-4</text>
<text text-anchor="start" x="682.0" y="357.0" fill="#808080" style="font-size:12px">5-9</text>
<text text-anchor="start" x="682.0" y="397.0" fill="#808080" style="font-size:12px">10-15</text>
<text text-anchor="start" x="682.0" y="437.0" fill="#808080" style="font-size:12px">16-20</text>
<text text-anchor="start" x="682.0" y="477.0" fill="#808080" style="font-size:12px">21-31</text>
<path d="M 668,318 L 672,318 L 672,482 L 668,482 Z" stroke="#000000" stroke-width="4.0" fill="#000000" fill-opacity="1.0"/>
<circle cx="660.0" cy="320.0" r="2.0" stroke="#0000b2" stroke-width="4.0" fill="#0000b2" />
<circle cx="680.0" cy="320.0" r="2.0" stroke="#b20000" stroke-width="4.0" fill="#b20000" />
<circle cx="680.0" cy="360.0" r="2.0" stroke="#b20000" stroke-width="4.0" fill="#b20000" />
<circle cx="680.0" cy="400.0" r="2.0" stroke="#b20000" stroke-width="4.0" fill="#b20000" />
<circle cx="680.0" cy="440.0" r="2.0" stroke="#b20000" stroke-width="4.0" fill="#b20000" />
<circle cx="680.0" cy="480.0" r="2.0" stroke="#b20000" stroke-width="4.0" fill="#b20000" />
</g>
<g>
<text text-anchor="end" x="1538.0" y="297.0" fill="#808080" style="font-size:12px">0-63</text>
<text text-anchor="start" x="1562.0" y="297.0" fill="#808080" style="font-size:12px">0-2</text>
<text text-anchor="start" x="1562.0" y="317.0" fill="#808080" style="font-size:12px">3-11</text>
<text text-anchor="start" x="1562.0" y="337.0" fill="#808080" style="font-size:12px">12-63</text>
<path d="M 1548,298 L 1552,298 L 1552,342 L 1548,342 Z" stroke="#000000" stroke-width="4.0" fill="#000000" fill-opacity="1.0"/>
<circle cx="1540.0" cy="300.0" r="2.0" stroke="#0000b2" stroke-width="4.0" fill="#0000b2" />
<circle cx="1560.0" cy="300.0" r="2.0" stroke="#b20000" stroke-width="4.0" fill="#b20000" />
<circle cx="1560.0" cy="320.0" r="2.0" stroke="#b20000" stroke-width="4.0" fill="#b20000" />
<circle cx="1560.0" cy="340.0" r="2.0" stroke="#b20000" stroke-width="4.0" fill="#b20000" />
</g>
<g>
<text text-anchor="end" x="581.0" y="411.0" fill="#000000" style="font-size:24px" transform="rotate(-90,581.0,402.0)" >91001C42</text>
<circle cx="580.0" cy="400.0" r="2.0" stroke="#0000b2" stroke-width="4.0" fill="#0000b2" />
</g>
<g>
<path d="M 1701,290 L 1759,290 L 1759,390 L 1701,390 Z" stroke="#000000" stroke-width="4.0" fill="none"/>
<text text-anchor="middle" x="1730.0" y="282.0" fill="#000000" style="font-size:24px">D-Mem</text>
<text text-anchor="start" x="1704.0" y="306.75" fill="#808080" style="font-size:18px">A</text>
<text text-anchor="start" x="1704.0" y="326.75" fill="#808080" style="font-size:18px">Din</text>
<text text-anchor="start" x="1704.0" y="346.75" fill="#808080" style="font-size:18px">str</text>
<path d="M 1701,367 L 1708,360 L 1701,353" stroke="#000000" stroke-width="2.0" fill="none"/>
<text text-anchor="start" x="1711.0" y="366.75" fill="#808080" style="font-size:18px">C</text>
<text text-anchor="start" x="1704.0" y="386.75" fill="#808080" style="font-size:18px">ld</text>
<text text-anchor="end" x="1756.0" y="346.75" fill="#808080" style="font-size:18px">D</text>
<text text-anchor="middle" x="1730.0" y="407.5" fill="#808080" style="font-size:18px">RAM</text>
<circle cx="1700.0" cy="300.0" r="2.0" stroke="#0000b2" stroke-width="4.0" fill="#0000b2" />
<circle cx="1700.0" cy="320.0" r="2.0" stroke="#0000b2" stroke-width="4.0" fill="#0000b2" />
<circle cx="1700.0" cy="340.0" r="2.0" stroke="#0000b2" stroke-width="4.0" fill="#0000b2" />
<circle cx="1700.0" cy="360.0" r="2.0" stroke="#0000b2" stroke-width="4.0" fill="#0000b2" />
<circle cx="1700.0" cy="380.0" r="2.0" stroke="#0000b2" stroke-width="4.0" fill="#0000b2" />
<circle cx="1760.0" cy="340.0" r="2.0" stroke="#b20000" stroke-width="4.0" fill="#b20000" />
</g>
<g>
<text text-anchor="end" x="1677.0" y="389.0" fill="#000000" style="font-size:24px">1</text>
<circle cx="1680.0" cy="380.0" r="2.0" stroke="#b20000" stroke-width="4.0" fill="#b20000" />
</g>
<g>
<path d="M 1801,436 L 1839,445 L 1839,475 L 1801,484 Z" stroke="#000000" stroke-width="4.0" fill="none"/>
<text text-anchor="start" x="1803.0" y="455.5" fill="#808080" style="font-size:18px">0</text>
<circle cx="1820.0" cy="440.0" r="2.0" stroke="#0000b2" stroke-width="4.0" fill="#0000b2" />
<circle cx="1800.0" cy="440.0" r="2.0" stroke="#0000b2" stroke-width="4.0" fill="#0000b2" />
<circle cx="1800.0" cy="480.0" r="2.0" stroke="#0000b2" stroke-width="4.0" fill="#0000b2" />
<circle cx="1840.0" cy="460.0" r="2.0" stroke="#b20000" stroke-width="4.0" fill="#b20000" />
</g>
<g>
<path d="M 1221,316 L 1259,325 L 1259,355 L 1221,364 Z" stroke="#000000" stroke-width="4.0" fill="none"/>
<text text-anchor="start" x="1223.0" y="335.5" fill="#808080" style="font-size:18px">0</text>
<circle cx="1240.0" cy="320.0" r="2.0" stroke="#0000b2" stroke-width="4.0" fill="#0000b2" />
<circle cx="1220.0" cy="320.0" r="2.0" stroke="#0000b2" stroke-width="4.0" fill="#0000b2" />
<circle cx="1220.0" cy="360.0" r="2.0" stroke="#0000b2" stroke-width="4.0" fill="#0000b2" />
<circle cx="1260.0" cy="340.0" r="2.0" stroke="#b20000" stroke-width="4.0" fill="#b20000" />
</g>
<g>
<path d="M 761,396 L 799,405 L 799,435 L 761,444 Z" stroke="#000000" stroke-width="4.0" fill="none"/>
<text text-anchor="start" x="763.0" y="415.5" fill="#808080" style="font-size:18px">0</text>
<circle cx="780.0" cy="400.0" r="2.0" stroke="#0000b2" stroke-width="4.0" fill="#0000b2" />
<circle cx="760.0" cy="400.0" r="2.0" stroke="#0000b2" stroke-width="4.0" fill="#0000b2" />
<circle cx="760.0" cy="440.0" r="2.0" stroke="#0000b2" stroke-width="4.0" fill="#0000b2" />
<circle cx="800.0" cy="420.0" r="2.0" stroke="#b20000" stroke-width="4.0" fill="#b20000" />
</g>
<g>
<text text-anchor="end" x="658.0" y="537.0" fill="#808080" style="font-size:12px">0-31</text>
<text text-anchor="start" x="682.0" y="537.0" fill="#808080" style="font-size:12px">0-4</text>
<text text-anchor="start" x="682.0" y="557.0" fill="#808080" style="font-size:12px">5-23</text>
<text text-anchor="start" x="682.0" y="577.0" fill="#808080" style="font-size:12px">24-31</text>
<path d="M 668,538 L 672,538 L 672,582 L 668,582 Z" stroke="#000000" stroke-width="4.0" fill="#000000" fill-opacity="1.0"/>
<circle cx="660.0" cy="540.0" r="2.0" stroke="#0000b2" stroke-width="4.0" fill="#0000b2" />
<circle cx="680.0" cy="540.0" r="2.0" stroke="#b20000" stroke-width="4.0" fill="#b20000" />
<circle cx="680.0" cy="560.0" r="2.0" stroke="#b20000" stroke-width="4.0" fill="#b20000" />
<circle cx="680.0" cy="580.0" r="2.0" stroke="#b20000" stroke-width="4.0" fill="#b20000" />
</g>
<g>
<text text-anchor="end" x="397.0" y="569.0" fill="#000000" style="font-size:24px">0</text>
<circle cx="400.0" cy="560.0" r="2.0" stroke="#b20000" stroke-width="4.0" fill="#b20000" />
</g>
<g>
<text text-anchor="start" x="1282.0" y="608.0" fill="#000000" style="font-size:24px">7</text>
<circle cx="1280.0" cy="600.0" r="2.0" stroke="#0000b2" stroke-width="4.0" fill="#0000b2" />
</g>
<g>
<text text-anchor="end" x="221.0" y="431.0" fill="#000000" style="font-size:24px" transform="rotate(-90,221.0,422.0)" >0x18</text>
<circle cx="220.0" cy="420.0" r="2.0" stroke="#0000b2" stroke-width="4.0" fill="#0000b2" />
</g>
<g>
<text text-anchor="end" x="401.0" y="431.0" fill="#000000" style="font-size:24px" transform="rotate(-90,401.0,422.0)" >0x14</text>
<circle cx="400.0" cy="420.0" r="2.0" stroke="#0000b2" stroke-width="4.0" fill="#0000b2" />
</g>
<g>
<text text-anchor="end" x="278.0" y="393.5" fill="#000000" style="font-size:14px">PC Next</text>
<path d="M 180,380 L 280,380 L 280,500 L 180,500 Z" stroke-dasharray="4.0,4.0" stroke="#000000" stroke-width="1.0" fill="none"/>
</g>
<g>
<text text-anchor="end" x="478.0" y="393.5" fill="#000000" style="font-size:14px">PC Current</text>
<path d="M 360,380 L 480,380 L 480,500 L 360,500 Z" stroke-dasharray="4.0,4.0" stroke="#000000" stroke-width="1.0" fill="none"/>
</g>
<g>
<text text-anchor="start" x="542.0" y="393.5" fill="#000000" style="font-size:14px">Inst</text>
<path d="M 540,380 L 600,380 L 600,540 L 540,540 Z" stroke-dasharray="4.0,4.0" stroke="#000000" stroke-width="1.0" fill="none"/>
</g>
<g>
<text text-anchor="start" x="1242.0" y="573.5" fill="#000000" style="font-size:14px">WB Value</text>
<path d="M 1240,560 L 1500,560 L 1500,640 L 1240,640 Z" stroke-dasharray="4.0,4.0" stroke="#000000" stroke-width="1.0" fill="none"/>
</g>
<g>
<text text-anchor="start" x="242.0" y="228.0" fill="#000000" style="font-size:24px">0</text>
<circle cx="240.0" cy="220.0" r="2.0" stroke="#0000b2" stroke-width="4.0" fill="#0000b2" />
</g>
<g>
<text text-anchor="start" x="82.0" y="213.5" fill="#000000" style="font-size:14px">Clock</text>
<path d="M 80,200 L 260,200 L 260,280 L 80,280 Z" stroke-dasharray="4.0,4.0" stroke="#000000" stroke-width="1.0" fill="none"/>
</g>
<g>
<text text-anchor="start" x="1282.0" y="508.0" fill="#000000" style="font-size:24px">7</text>
<circle cx="1280.0" cy="500.0" r="2.0" stroke="#0000b2" stroke-width="4.0" fill="#0000b2" />
</g>
<g>
<text text-anchor="start" x="1242.0" y="473.5" fill="#000000" style="font-size:14px">Decoded Imm</text>
<path d="M 1240,460 L 1500,460 L 1500,520 L 1240,520 Z" stroke-dasharray="4.0,4.0" stroke="#000000" stroke-width="1.0" fill="none"/>
</g>
<g>
<path d="M 1041,506 L 1139,506 L 1139,574 L 1041,574 Z" stroke="#ffffb4" stroke-width="0.0" fill="#ffffb4" fill-opacity="0.7843137254901961"/>
<path d="M 1041,506 L 1139,506 L 1139,574 L 1041,574 Z" stroke="#000000" stroke-width="4.0" fill="none"/>
<text text-anchor="start" x="1044.0" y="526.75" fill="#808080" style="font-size:18px">type</text>
<text text-anchor="start" x="1044.0" y="566.75" fill="#808080" style="font-size:18px">imm</text>
<text text-anchor="end" x="1136.0" y="546.75" fill="#808080" style="font-size:18px">dec</text>
<text text-anchor="middle" x="1090.0" y="591.5" fill="#808080" style="font-size:18px">Decode Imm</text>
<circle cx="1040.0" cy="520.0" r="2.0" stroke="#0000b2" stroke-width="4.0" fill="#0000b2" />
<circle cx="1040.0" cy="560.0" r="2.0" stroke="#0000b2" stroke-width="4.0" fill="#0000b2" />
<circle cx="1140.0" cy="540.0" r="2.0" stroke="#b20000" stroke-width="4.0" fill="#b20000" />
</g>
<g>
<path d="M 1321,286 L 1439,286 L 1439,354 L 1321,354 Z" stroke="#ffffb4" stroke-width="0.0" fill="#ffffb4" fill-opacity="0.7843137254901961"/>
<path d="M 1321,286 L 1439,286 L 1439,354 L 1321,354 Z" stroke="#000000" stroke-width="4.0" fill="none"/>
<text text-anchor="start" x="1324.0" y="306.75" fill="#808080" style="font-size:18px">Ctrl</text>
<text text-anchor="start" x="1324.0" y="326.75" fill="#808080" style="font-size:18px">A</text>
<text text-anchor="start" x="1324.0" y="346.75" fill="#808080" style="font-size:18px">B</text>
<text text-anchor="end" x="1436.0" y="306.75" fill="#808080" style="font-size:18px">Result</text>
<text text-anchor="end" x="1436.0" y="326.75" fill="#808080" style="font-size:18px">NZCV</text>
<text text-anchor="middle" x="1380.0" y="371.5" fill="#808080" style="font-size:18px">ALU</text>
<circle cx="1320.0" cy="300.0" r="2.0" stroke="#0000b2" stroke-width="4.0" fill="#0000b2" />
<circle cx="1320.0" cy="320.0" r="2.0" stroke="#0000b2" stroke-width="4.0" fill="#0000b2" />
<circle cx="1320.0" cy="340.0" r="2.0" stroke="#0000b2" stroke-width="4.0" fill="#0000b2" />
<circle cx="1440.0" cy="300.0" r="2.0" stroke="#b20000" stroke-width="4.0" fill="#b20000" />
<circle cx="1440.0" cy="320.0" r="2.0" stroke="#b20000" stroke-width="4.0" fill="#b20000" />
</g>
<g>
<path d="M 621,-74 L 739,-74 L 739,134 L 621,134 Z" stroke="#ccffff" stroke-width="0.0" fill="#ccffff" fill-opacity="1.0"/>
<path d="M 621,-74 L 739,-74 L 739,134 L 621,134 Z" stroke="#000000" stroke-width="4.0" fill="none"/>
<text text-anchor="start" x="624.0" y="-53.25" fill="#808080" style="font-size:18px">Inst</text>
<text text-anchor="end" x="736.0" y="-53.25" fill="#808080" style="font-size:18px">Cond</text>
<text text-anchor="end" x="736.0" y="-33.25" fill="#808080" style="font-size:18px">FlagSet</text>
<text text-anchor="end" x="736.0" y="-13.25" fill="#808080" style="font-size:18px">Branch</text>
<text text-anchor="end" x="736.0" y="6.75" fill="#808080" style="font-size:18px">RegSrc</text>
<text text-anchor="end" x="736.0" y="26.75" fill="#808080" style="font-size:18px">RegW</text>
<text text-anchor="end" x="736.0" y="46.75" fill="#808080" style="font-size:18px">ImmType</text>
<text text-anchor="end" x="736.0" y="66.75" fill="#808080" style="font-size:18px">AluSrc</text>
<text text-anchor="end" x="736.0" y="86.75" fill="#808080" style="font-size:18px">AluCtrl</text>
<text text-anchor="end" x="736.0" y="106.75" fill="#808080" style="font-size:18px">MemW</text>
<text text-anchor="end" x="736.0" y="126.75" fill="#808080" style="font-size:18px">Mem2Reg</text>
<text text-anchor="middle" x="680.0" y="151.5" fill="#808080" style="font-size:18px">Control Decoder</text>
<circle cx="620.0" cy="-60.0" r="2.0" stroke="#0000b2" stroke-width="4.0" fill="#0000b2" />
<circle cx="740.0" cy="-60.0" r="2.0" stroke="#b20000" stroke-width="4.0" fill="#b20000" />
<circle cx="740.0" cy="-40.0" r="2.0" stroke="#b20000" stroke-width="4.0" fill="#b20000" />
<circle cx="740.0" cy="-20.0" r="2.0" stroke="#b20000" stroke-width="4.0" fill="#b20000" />
<circle cx="740.0" cy="0.0" r="2.0" stroke="#b20000" stroke-width="4.0" fill="#b20000" />
<circle cx="740.0" cy="20.0" r="2.0" stroke="#b20000" stroke-width="4.0" fill="#b20000" />
<circle cx="740.0" cy="40.0" r="2.0" stroke="#b20000" stroke-width="4.0" fill="#b20000" />
<circle cx="740.0" cy="60.0" r="2.0" stroke="#b20000" stroke-width="4.0" fill="#b20000" />
<circle cx="740.0" cy="80.0" r="2.0" stroke="#b20000" stroke-width="4.0" fill="#b20000" />
<circle cx="740.0" cy="100.0" r="2.0" stroke="#b20000" stroke-width="4.0" fill="#b20000" />
<circle cx="740.0" cy="120.0" r="2.0" stroke="#b20000" stroke-width="4.0" fill="#b20000" />
</g>
<g>
<path d="M 321,516 L 359,525 L 359,555 L 321,564 Z" stroke="#000000" stroke-width="4.0" fill="none"/>
<text text-anchor="start" x="323.0" y="535.5" fill="#808080" style="font-size:18px">0</text>
<circle cx="340.0" cy="520.0" r="2.0" stroke="#0000b2" stroke-width="4.0" fill="#0000b2" />
<circle cx="320.0" cy="520.0" r="2.0" stroke="#0000b2" stroke-width="4.0" fill="#0000b2" />
<circle cx="320.0" cy="560.0" r="2.0" stroke="#0000b2" stroke-width="4.0" fill="#0000b2" />
<circle cx="360.0" cy="540.0" r="2.0" stroke="#b20000" stroke-width="4.0" fill="#b20000" />
</g>
<g>
<text text-anchor="end" x="277.0" y="529.0" fill="#000000" style="font-size:24px">4</text>
<circle cx="280.0" cy="520.0" r="2.0" stroke="#b20000" stroke-width="4.0" fill="#b20000" />
</g>
<g>
<path d="M 1541,-74 L 1599,-74 L 1599,34 L 1541,34 Z" stroke="#ffffb4" stroke-width="0.0" fill="#ffffb4" fill-opacity="0.7843137254901961"/>
<path d="M 1541,-74 L 1599,-74 L 1599,34 L 1541,34 Z" stroke="#000000" stroke-width="4.0" fill="none"/>
<text text-anchor="start" x="1544.0" y="-53.25" fill="#808080" style="font-size:18px">Cond</text>
<text text-anchor="start" x="1544.0" y="-33.25" fill="#808080" style="font-size:18px">FlagSet</text>
<text text-anchor="start" x="1544.0" y="-13.25" fill="#808080" style="font-size:18px">Branch</text>
<text text-anchor="start" x="1544.0" y="6.75" fill="#808080" style="font-size:18px">CLK</text>
<text text-anchor="start" x="1544.0" y="26.75" fill="#808080" style="font-size:18px">NZCV</text>
<text text-anchor="end" x="1596.0" y="-13.25" fill="#808080" style="font-size:18px">PcOff</text>
<text text-anchor="middle" x="1570.0" y="51.5" fill="#808080" style="font-size:18px">PC_Control</text>
<circle cx="1540.0" cy="-60.0" r="2.0" stroke="#0000b2" stroke-width="4.0" fill="#0000b2" />
<circle cx="1540.0" cy="-40.0" r="2.0" stroke="#0000b2" stroke-width="4.0" fill="#0000b2" />
<circle cx="1540.0" cy="-20.0" r="2.0" stroke="#0000b2" stroke-width="4.0" fill="#0000b2" />
<circle cx="1540.0" cy="0.0" r="2.0" stroke="#0000b2" stroke-width="4.0" fill="#0000b2" />
<circle cx="1540.0" cy="20.0" r="2.0" stroke="#0000b2" stroke-width="4.0" fill="#0000b2" />
<circle cx="1600.0" cy="-20.0" r="2.0" stroke="#b20000" stroke-width="4.0" fill="#b20000" />
</g>
</g>
</svg>